<?xml version="1.0" encoding="UTF-8" standalone="no"?>
<!DOCTYPE svg PUBLIC "-//W3C//DTD SVG 1.1//EN" "http://www.w3.org/Graphics/SVG/1.1/DTD/svg11.dtd">
<svg width="100%" height="100%" viewBox="0 0 788 1048" version="1.1" xmlns="http://www.w3.org/2000/svg" xmlns:xlink="http://www.w3.org/1999/xlink" xml:space="preserve" xmlns:serif="http://www.serif.com/" style="fill-rule:evenodd;clip-rule:evenodd;stroke-linecap:round;stroke-linejoin:round;stroke-miterlimit:1.5;">
    <g transform="matrix(1,0,0,1,0.00633826,-0.000118593)">
        <g transform="matrix(1,0,0,1,-1360.6,-627.132)">
            <g transform="matrix(1,0,0,1,-59.1184,54.3206)">
                <path d="M1652.91,887.882C1652.98,888.037 1653.05,888.19 1653.12,888.342L1596.37,831.004C1585.57,835.291 1573.14,837.925 1559.06,838.426C1439.88,832.695 1437.3,663.976 1559.06,657.056C1656.6,659.553 1675.33,767.577 1622.37,815.053L1677.22,869.899C1686.29,877.383 1683.52,893.612 1666.38,894.595C1659.83,893.921 1655.41,891.29 1652.91,887.882Z" style="stroke:black;stroke-width:0.23px;"/>
            </g>
            <g transform="matrix(1,0,0,1,-0.657449,0)">
                <g transform="matrix(1.01205,0,0,1.08076,-20.7076,-65.0007)">
                    <ellipse cx="1754.16" cy="665.581" rx="10.034" ry="9.491" style="fill:white;fill-opacity:0;stroke:black;stroke-width:0.96px;"/>
                </g>
                <g transform="matrix(1,0,0,1,0.657449,0)">
                    <path d="M1733.39,642.396C1737.98,622.357 1768.36,623.393 1773.99,641.411L1774.48,823.978C1767.98,843.141 1742.23,843.56 1733.88,824.224L1733.39,642.396ZM1753.94,644.073C1748.33,644.073 1743.78,648.669 1743.78,654.331C1743.78,659.993 1748.33,664.589 1753.94,664.589C1759.54,664.589 1764.09,659.993 1764.09,654.331C1764.09,648.669 1759.54,644.073 1753.94,644.073Z"/>
                </g>
                <path d="M1734.05,642.396C1738.64,622.357 1769.02,623.393 1774.65,641.411L1775.14,823.978C1768.64,843.141 1742.88,843.56 1734.54,824.224L1734.05,642.396Z" style="fill:none;stroke:black;stroke-width:1px;"/>
            </g>
            <g>
                <g>
                    <path d="M1908.1,782.968L1977.78,719.294C2065.13,704.716 2109.68,737.928 2100.92,830.674C2078.83,863.705 2050.73,893.304 2017.42,919.928C1985.91,928.856 1958.04,929.021 1934.53,918.726L1906.9,945.758C1889.43,946.462 1881.32,939.247 1884.67,922.33L1910.5,897.702C1899.95,887.772 1893.82,875.194 1891.28,860.459C1886.89,832.129 1893.27,806.492 1908.1,782.968Z" style="fill:none;stroke:black;stroke-width:1px;"/>
                    <path d="M1936.08,824.643C1928.56,833.884 1938.56,845.606 1950.84,838.539L2011.86,776.812C2016.73,758.029 2003.48,751.181 1991.19,764.214" style="fill:none;stroke:black;stroke-width:1px;"/>
                    <path d="M1936.08,824.643C1953.7,804.5 1972,784.357 1991.19,764.214" style="fill:none;stroke:black;stroke-width:1px;"/>
                </g>
                <path d="M1908.1,782.968L1977.78,719.294C2065.13,704.716 2109.68,737.928 2100.92,830.674C2078.83,863.705 2050.73,893.304 2017.42,919.928C1985.91,928.856 1958.04,929.021 1934.53,918.726L1906.9,945.758C1889.43,946.462 1881.32,939.247 1884.67,922.33L1910.5,897.702C1899.95,887.772 1893.82,875.194 1891.28,860.459C1886.89,832.129 1893.27,806.492 1908.1,782.968ZM1936.08,824.643C1928.56,833.884 1938.56,845.606 1950.84,838.539L2011.86,776.812C2016.73,758.029 2003.48,751.181 1991.19,764.214C1972,784.357 1953.7,804.5 1936.08,824.643ZM1997.45,879.059L2055.32,818.04C2067.2,799.208 2050.32,791.714 2039.97,803.277L1979.93,861.737C1973.11,872.668 1984,884.991 1997.45,879.059Z"/>
                <path d="M1997.45,879.059L2055.32,818.04C2067.2,799.208 2050.32,791.714 2039.97,803.277L1979.93,861.737C1973.11,872.668 1984,884.991 1997.45,879.059" style="fill:none;stroke:black;stroke-width:1px;"/>
            </g>
            <g>
                <path d="M2113.74,1122.86L2113.54,1149.13C2110.09,1159.02 2098.04,1159.85 2093.66,1149.13L2093.26,1122.86L2059.39,1122.86C2047.35,1123.92 2046.84,1102.39 2059.39,1102.09" style="fill:none;stroke:black;stroke-width:1px;"/>
                <path d="M2113.74,1122.86L2113.54,1149.13C2110.09,1159.02 2098.04,1159.85 2093.66,1149.13L2093.26,1122.86L2059.39,1122.86C2047.35,1123.92 2046.84,1102.39 2059.39,1102.09L2092.67,1102.09L2093.07,1075.32C2101.07,1066.23 2107.84,1067.29 2113.74,1075.52L2113.74,1102.09L2140.31,1102.09C2149.23,1109.53 2149.75,1116.48 2140.31,1122.86L2113.74,1122.86Z"/>
                <path d="M2092.67,1102.09L2093.07,1075.32C2101.07,1066.23 2107.84,1067.29 2113.74,1075.52L2113.74,1102.09L2140.31,1102.09C2149.23,1109.53 2149.75,1116.48 2140.31,1122.86L2113.74,1122.86" style="fill:none;stroke:black;stroke-width:1px;"/>
                <path d="M2092.67,1102.09L2059.39,1102.09" style="fill:none;stroke:black;stroke-width:1px;"/>
            </g>
            <path d="M1415.22,1102.49L1449.08,1102.6C1457.61,1108.69 1457.93,1115.42 1448.98,1122.86L1415.22,1122.86L1415.22,1149.72C1408.5,1158.53 1401.79,1158.65 1395.07,1149.72L1395.07,1122.86L1367.86,1122.86C1358.75,1116.08 1358.95,1109.3 1367.79,1102.52L1394.9,1102.6L1394.94,1075.56C1401.49,1067.56 1408.22,1066.61 1415.21,1075.56L1415.22,1102.49Z"/>
            <path d="M1415.22,1102.49L1449.08,1102.6C1457.61,1108.69 1457.93,1115.42 1448.98,1122.86L1415.22,1122.86L1415.22,1149.72C1408.5,1158.53 1401.79,1158.65 1395.07,1149.72L1395.07,1122.86L1367.86,1122.86C1358.75,1116.08 1358.95,1109.3 1367.79,1102.52L1394.9,1102.6L1394.94,1075.56C1401.49,1067.56 1408.22,1066.61 1415.21,1075.56L1415.22,1102.49Z" style="fill:none;stroke:black;stroke-width:1px;"/>
            <path d="M1713.59,940.107C1735.25,902.749 1773.74,898.729 1794.84,940.107L1794.53,966.877L1847.59,967.192C1882.57,975.008 1909.3,991.236 1922.86,1020.89L1591.39,1020.73C1604.9,993.755 1628.63,975.061 1666.5,967.822L1713.11,966.877L1713.59,940.107Z"/>
            <path d="M1713.59,940.107C1735.25,902.749 1773.74,898.729 1794.84,940.107L1794.53,966.877L1847.59,967.192C1882.57,975.008 1909.3,991.236 1922.86,1020.89L1591.39,1020.73C1604.9,993.755 1628.63,975.061 1666.5,967.822L1713.11,966.877L1713.59,940.107Z" style="fill:none;stroke:black;stroke-width:1px;"/>
            <g>
                <g>
                    <path d="M1977.83,1082.07C1993.68,1076.26 1999.88,1058.13 1977.52,1048.06" style="fill:none;stroke:black;stroke-width:1px;"/>
                    <path d="M1537.22,1082.07C1516.27,1080.08 1513.13,1051.69 1537.36,1048.06L1977.52,1048.06" style="fill:none;stroke:black;stroke-width:1px;"/>
                    <path d="M1537.22,1082.07C1516.27,1080.08 1513.13,1051.69 1537.36,1048.06L1977.52,1048.06C1999.88,1058.13 1993.68,1076.26 1977.83,1082.07L1537.22,1082.07Z"/>
                </g>
                <path d="M1977.83,1082.07L1537.22,1082.07" style="fill:none;stroke:black;stroke-width:1px;"/>
            </g>
            <g>
                <g transform="matrix(1,0,0,1,-1.13673,-0.827592)">
                    <path d="M1753.94,1164.68C1772.64,1169.11 1770.14,1195.01 1753.94,1197.28C1737.01,1191.89 1742.21,1166.69 1753.94,1164.68Z" style="fill:none;stroke:rgb(35,31,32);stroke-width:1px;"/>
                </g>
                <path d="M1585.73,1102.84L1929.96,1102.25L1930.84,1223.35C1922.14,1254.94 1903.76,1274.84 1876.3,1283.75" style="fill:none;stroke:rgb(35,31,32);stroke-width:1px;"/>
                <path d="M1633.52,1283.75L1876.3,1283.75L1633.52,1283.75Z" style="fill:none;stroke:rgb(35,31,32);stroke-width:1px;"/>
                <path d="M1585.73,1240.16C1598.24,1258.67 1613.19,1274.36 1633.52,1283.75" style="fill:none;stroke:rgb(35,31,32);stroke-width:1px;"/>
                <path d="M1585.73,1240.16L1585.73,1102.25" style="fill:none;stroke:rgb(35,31,32);stroke-width:1px;"/>
                <path d="M1585.73,1102.84L1929.96,1102.25L1930.84,1223.35C1922.14,1254.94 1903.76,1274.84 1876.3,1283.75L1633.52,1283.75C1613.19,1274.36 1598.24,1258.67 1585.73,1240.16L1585.73,1102.84ZM1752.8,1163.85C1741.07,1165.86 1735.87,1191.06 1752.8,1196.45C1769,1194.18 1771.51,1168.29 1752.8,1163.85Z" style="stroke:black;stroke-width:1px;stroke-linecap:butt;stroke-miterlimit:2;"/>
            </g>
            <path d="M1472.6,1387.02L1472.6,1404.37L1414.8,1404.41L1414.85,1445.97L1470.63,1446.01L1470.62,1463.48L1414.78,1463.49L1414.78,1505.89L1474.44,1505.89L1474.47,1523.27L1395.3,1523.24L1395.4,1387.04L1472.6,1387.02Z" style="stroke:black;stroke-width:0.58px;"/>
            <path d="M1495.29,1387.02L1514.81,1387.02L1514.8,1505.69L1576.16,1505.68L1576.21,1523.44L1495.25,1523.45L1495.29,1387.02Z" style="stroke:black;stroke-width:0.47px;"/>
            <g transform="matrix(1,0,0,1,296.289,0.275042)">
                <path d="M1495.29,1387.02L1514.81,1387.02L1514.8,1505.69L1576.16,1505.68L1576.21,1523.44L1495.25,1523.45L1495.29,1387.02Z" style="stroke:black;stroke-width:0.47px;"/>
            </g>
            <path d="M1885.73,1387.02L1905.37,1387.02L1905.75,1472.73C1906.31,1518.85 1978.67,1520.13 1983.84,1472.73L1983.84,1387.29L2003.08,1387.02L2003.08,1473.67C1994.38,1547.13 1887.75,1537.63 1886.32,1473.29L1885.73,1387.02Z" style="stroke:black;stroke-width:0.23px;"/>
            <path d="M1766.38,1491.77L1766.45,1513.22C1734.18,1527.79 1702.38,1527.28 1671.07,1511.25C1635.77,1473.87 1634.47,1437.2 1670.91,1401.32C1699.69,1381.11 1730.61,1380.71 1764.61,1396.37L1764.98,1417.29C1737.34,1401.7 1709.96,1399.88 1682.92,1415.97C1658.29,1441.31 1658.4,1467.63 1681.98,1494.89C1706.7,1510.5 1734.76,1509.83 1766.38,1491.77Z" style="stroke:black;stroke-width:0.47px;"/>
            <path d="M2030.18,1387.02L2072.33,1387.02C2113.52,1391 2130,1428.72 2091.16,1451.1C2133.8,1469.91 2133.72,1502.93 2093.85,1521.19C2087.66,1522.99 2081.62,1523.74 2075.73,1523.45L2030.49,1523.45L2030.18,1387.02ZM2050.27,1404.41L2049.85,1445.44C2072.47,1447.19 2088.82,1443.92 2090.45,1421.84C2086.85,1406.03 2072.02,1402.08 2050.27,1404.41ZM2049.85,1462.44L2049.85,1506.23C2078.65,1508.17 2101.28,1505.37 2103.41,1486.89C2106.93,1465.64 2081.55,1462.1 2049.85,1462.44Z" style="stroke:black;stroke-width:0.58px;"/>
            <path d="M1490.29,1605.32L1522.94,1605.18C1561.98,1613.95 1562.51,1663.94 1522.67,1673.34L1490.15,1673.34L1490.29,1605.32ZM1499.95,1664.36C1523.08,1665.42 1541.05,1661.07 1542.39,1639.26C1543.32,1618.31 1526.55,1611.84 1499.54,1613.75L1499.95,1664.36Z" style="stroke:black;stroke-width:0.35px;"/>
            <path d="M1564.76,1605.18L1603.4,1605.18L1603.44,1613.8L1574.59,1613.95L1574.59,1634.77L1602.48,1634.77L1602.51,1643.44L1574.55,1643.47L1574.54,1664.66L1604.38,1664.67L1604.38,1673.36L1564.78,1673.36L1564.76,1605.18" style="stroke:black;stroke-width:0.23px;"/>
            <path d="M1642.56,1605.24L1652.32,1605.25L1652.33,1664.58L1683.04,1664.57L1683.04,1673.46L1642.59,1673.45L1642.56,1605.24Z" style="stroke:black;stroke-width:0.47px;"/>
            <path d="M1684.08,1673.46L1713.37,1604.85L1720.25,1604.86L1750.91,1673.46L1740.89,1673.46L1731.82,1653.26L1702.62,1653.23L1694.12,1673.46L1684.08,1673.46ZM1706.58,1644.53L1727.74,1644.55L1716.71,1619.84L1706.58,1644.53Z" style="stroke:black;stroke-width:0.47px;"/>
            <g transform="matrix(1,0,0,1,274.902,0.19628)">
                <path d="M1684.08,1673.46L1713.37,1604.85L1720.25,1604.86L1750.91,1673.46L1740.89,1673.46L1731.82,1653.26L1702.62,1653.23L1694.12,1673.46L1684.08,1673.46ZM1706.58,1644.53L1727.74,1644.55L1716.71,1619.84L1706.58,1644.53Z" style="stroke:black;stroke-width:0.47px;"/>
            </g>
            <path d="M1856.29,1636.87C1857.29,1660.29 1840.72,1673.38 1819.75,1674.15C1796.64,1673.62 1784.03,1660.7 1783.1,1639.32C1784.32,1616.19 1797.67,1605.07 1819.75,1604.24C1839.96,1605.83 1853.34,1615.31 1856.29,1636.87ZM1820.17,1613.25C1801.78,1614.25 1794.67,1624.49 1792.97,1639.15C1793.1,1654.79 1803.92,1665.83 1821.54,1665.37C1839.36,1662.71 1846.48,1652.03 1846.52,1636.92C1844.16,1621.41 1834.53,1614.53 1820.17,1613.25Z" style="stroke:black;stroke-width:0.47px;"/>
            <path d="M1868.4,1605.26L1878.16,1605.24L1878.16,1664.57L1908.87,1664.57L1908.87,1673.46L1868.39,1673.46L1868.4,1605.26Z" style="stroke:black;stroke-width:0.47px;"/>
            <g transform="matrix(1,0,0,1,48.8924,-0.154511)">
                <path d="M1868.4,1605.26L1878.16,1605.24L1878.16,1664.57L1908.87,1664.57L1908.87,1673.46L1868.39,1673.46L1868.4,1605.26Z" style="stroke:black;stroke-width:0.47px;"/>
            </g>
        </g>
    </g>
</svg>
