<?xml version="1.0" encoding="UTF-8" standalone="no"?>
<!DOCTYPE svg PUBLIC "-//W3C//DTD SVG 1.1//EN" "http://www.w3.org/Graphics/SVG/1.1/DTD/svg11.dtd">
<svg width="100%" height="100%" viewBox="0 0 32 27" version="1.1" xmlns="http://www.w3.org/2000/svg" xmlns:xlink="http://www.w3.org/1999/xlink" xml:space="preserve" xmlns:serif="http://www.serif.com/" style="fill-rule:evenodd;clip-rule:evenodd;stroke-linecap:round;stroke-linejoin:round;stroke-miterlimit:1.5;">
    <g transform="matrix(0.0407071,0,0,0.0409987,-55.4062,-25.7321)">
        <g>
            <g transform="matrix(1,0,0,1,-59.1184,54.3206)">
                <path d="M1652.91,887.882C1652.98,888.037 1653.05,888.19 1653.12,888.342L1596.37,831.004C1585.57,835.291 1573.14,837.925 1559.06,838.426C1439.88,832.695 1437.3,663.976 1559.06,657.056C1656.6,659.553 1675.33,767.577 1622.37,815.053L1677.22,869.899C1686.29,877.383 1683.52,893.612 1666.38,894.595C1659.83,893.921 1655.41,891.29 1652.91,887.882Z" style="stroke:black;stroke-width:0.23px;"/>
            </g>
            <g transform="matrix(1,0,0,1,-0.657449,0)">
                <g transform="matrix(1.01205,0,0,1.08076,-20.7076,-65.0007)">
                    <ellipse cx="1754.16" cy="665.581" rx="10.034" ry="9.491" style="fill:white;fill-opacity:0;stroke:black;stroke-width:0.96px;"/>
                </g>
                <g transform="matrix(1,0,0,1,0.657449,0)">
                    <path d="M1733.39,642.396C1737.98,622.357 1768.36,623.393 1773.99,641.411L1774.48,823.978C1767.98,843.141 1742.23,843.56 1733.88,824.224L1733.39,642.396ZM1753.94,644.073C1748.33,644.073 1743.78,648.669 1743.78,654.331C1743.78,659.993 1748.33,664.589 1753.94,664.589C1759.54,664.589 1764.09,659.993 1764.09,654.331C1764.09,648.669 1759.54,644.073 1753.94,644.073Z"/>
                </g>
                <path d="M1734.05,642.396C1738.64,622.357 1769.02,623.393 1774.65,641.411L1775.14,823.978C1768.64,843.141 1742.88,843.56 1734.54,824.224L1734.05,642.396Z" style="fill:none;stroke:black;stroke-width:1px;"/>
            </g>
            <g>
                <g>
                    <path d="M1908.1,782.968L1977.78,719.294C2065.13,704.716 2109.68,737.928 2100.92,830.674C2078.83,863.705 2050.73,893.304 2017.42,919.928C1985.91,928.856 1958.04,929.021 1934.53,918.726L1906.9,945.758C1889.43,946.462 1881.32,939.247 1884.67,922.33L1910.5,897.702C1899.95,887.772 1893.82,875.194 1891.28,860.459C1886.89,832.129 1893.27,806.492 1908.1,782.968Z" style="fill:none;stroke:black;stroke-width:1px;"/>
                    <path d="M1936.08,824.643C1928.56,833.884 1938.56,845.606 1950.84,838.539L2011.86,776.812C2016.73,758.029 2003.48,751.181 1991.19,764.214" style="fill:none;stroke:black;stroke-width:1px;"/>
                    <path d="M1936.08,824.643C1953.7,804.5 1972,784.357 1991.19,764.214" style="fill:none;stroke:black;stroke-width:1px;"/>
                </g>
                <path d="M1908.1,782.968L1977.78,719.294C2065.13,704.716 2109.68,737.928 2100.92,830.674C2078.83,863.705 2050.73,893.304 2017.42,919.928C1985.91,928.856 1958.04,929.021 1934.53,918.726L1906.9,945.758C1889.43,946.462 1881.32,939.247 1884.67,922.33L1910.5,897.702C1899.95,887.772 1893.82,875.194 1891.28,860.459C1886.89,832.129 1893.27,806.492 1908.1,782.968ZM1936.08,824.643C1928.56,833.884 1938.56,845.606 1950.84,838.539L2011.86,776.812C2016.73,758.029 2003.48,751.181 1991.19,764.214C1972,784.357 1953.7,804.5 1936.08,824.643ZM1997.45,879.059L2055.32,818.04C2067.2,799.208 2050.32,791.714 2039.97,803.277L1979.93,861.737C1973.11,872.668 1984,884.991 1997.45,879.059Z"/>
                <path d="M1997.45,879.059L2055.32,818.04C2067.2,799.208 2050.32,791.714 2039.97,803.277L1979.93,861.737C1973.11,872.668 1984,884.991 1997.45,879.059" style="fill:none;stroke:black;stroke-width:1px;"/>
            </g>
            <g>
                <path d="M2113.74,1122.86L2113.54,1149.13C2110.09,1159.02 2098.04,1159.85 2093.66,1149.13L2093.26,1122.86L2059.39,1122.86C2047.35,1123.92 2046.84,1102.39 2059.39,1102.09" style="fill:none;stroke:black;stroke-width:1px;"/>
                <path d="M2113.74,1122.86L2113.54,1149.13C2110.09,1159.02 2098.04,1159.85 2093.66,1149.13L2093.26,1122.86L2059.39,1122.86C2047.35,1123.92 2046.84,1102.39 2059.39,1102.09L2092.67,1102.09L2093.07,1075.32C2101.07,1066.23 2107.84,1067.29 2113.74,1075.52L2113.74,1102.09L2140.31,1102.09C2149.23,1109.53 2149.75,1116.48 2140.31,1122.86L2113.74,1122.86Z"/>
                <path d="M2092.67,1102.09L2093.07,1075.32C2101.07,1066.23 2107.84,1067.29 2113.74,1075.52L2113.74,1102.09L2140.31,1102.09C2149.23,1109.53 2149.75,1116.48 2140.31,1122.86L2113.74,1122.86" style="fill:none;stroke:black;stroke-width:1px;"/>
                <path d="M2092.67,1102.09L2059.39,1102.09" style="fill:none;stroke:black;stroke-width:1px;"/>
            </g>
            <path d="M1415.22,1102.49L1449.08,1102.6C1457.61,1108.69 1457.93,1115.42 1448.98,1122.86L1415.22,1122.86L1415.22,1149.72C1408.5,1158.53 1401.79,1158.65 1395.07,1149.72L1395.07,1122.86L1367.86,1122.86C1358.75,1116.08 1358.95,1109.3 1367.79,1102.52L1394.9,1102.6L1394.94,1075.56C1401.49,1067.56 1408.22,1066.61 1415.21,1075.56L1415.22,1102.49Z"/>
            <path d="M1415.22,1102.49L1449.08,1102.6C1457.61,1108.69 1457.93,1115.42 1448.98,1122.86L1415.22,1122.86L1415.22,1149.72C1408.5,1158.53 1401.79,1158.65 1395.07,1149.72L1395.07,1122.86L1367.86,1122.86C1358.75,1116.08 1358.95,1109.3 1367.79,1102.52L1394.9,1102.6L1394.94,1075.56C1401.49,1067.56 1408.22,1066.61 1415.21,1075.56L1415.22,1102.49Z" style="fill:none;stroke:black;stroke-width:1px;"/>
            <path d="M1713.59,940.107C1735.25,902.749 1773.74,898.729 1794.84,940.107L1794.53,966.877L1847.59,967.192C1882.57,975.008 1909.3,991.236 1922.86,1020.89L1591.39,1020.73C1604.9,993.755 1628.63,975.061 1666.5,967.822L1713.11,966.877L1713.59,940.107Z"/>
            <path d="M1713.59,940.107C1735.25,902.749 1773.74,898.729 1794.84,940.107L1794.53,966.877L1847.59,967.192C1882.57,975.008 1909.3,991.236 1922.86,1020.89L1591.39,1020.73C1604.9,993.755 1628.63,975.061 1666.5,967.822L1713.11,966.877L1713.59,940.107Z" style="fill:none;stroke:black;stroke-width:1px;"/>
            <g>
                <g>
                    <path d="M1977.83,1082.07C1993.68,1076.26 1999.88,1058.13 1977.52,1048.06" style="fill:none;stroke:black;stroke-width:1px;"/>
                    <path d="M1537.22,1082.07C1516.27,1080.08 1513.13,1051.69 1537.36,1048.06L1977.52,1048.06" style="fill:none;stroke:black;stroke-width:1px;"/>
                    <path d="M1537.22,1082.07C1516.27,1080.08 1513.13,1051.69 1537.36,1048.06L1977.52,1048.06C1999.88,1058.13 1993.68,1076.26 1977.83,1082.07L1537.22,1082.07Z"/>
                </g>
                <path d="M1977.83,1082.07L1537.22,1082.07" style="fill:none;stroke:black;stroke-width:1px;"/>
            </g>
            <g>
                <g transform="matrix(1,0,0,1,-1.13673,-0.827592)">
                    <path d="M1753.94,1164.68C1772.64,1169.11 1770.14,1195.01 1753.94,1197.28C1737.01,1191.89 1742.21,1166.69 1753.94,1164.68Z" style="fill:none;stroke:rgb(35,31,32);stroke-width:1px;"/>
                </g>
                <path d="M1585.73,1102.84L1929.96,1102.25L1930.84,1223.35C1922.14,1254.94 1903.76,1274.84 1876.3,1283.75" style="fill:none;stroke:rgb(35,31,32);stroke-width:1px;"/>
                <path d="M1633.52,1283.75L1876.3,1283.75L1633.52,1283.75Z" style="fill:none;stroke:rgb(35,31,32);stroke-width:1px;"/>
                <path d="M1585.73,1240.16C1598.24,1258.67 1613.19,1274.36 1633.52,1283.75" style="fill:none;stroke:rgb(35,31,32);stroke-width:1px;"/>
                <path d="M1585.73,1240.16L1585.73,1102.25" style="fill:none;stroke:rgb(35,31,32);stroke-width:1px;"/>
                <path d="M1585.73,1102.84L1929.96,1102.25L1930.84,1223.35C1922.14,1254.94 1903.76,1274.84 1876.3,1283.75L1633.52,1283.75C1613.19,1274.36 1598.24,1258.67 1585.73,1240.16L1585.73,1102.84ZM1752.8,1163.85C1741.07,1165.86 1735.87,1191.06 1752.8,1196.45C1769,1194.18 1771.51,1168.29 1752.8,1163.85Z" style="stroke:black;stroke-width:1px;stroke-linecap:butt;stroke-miterlimit:2;"/>
            </g>
        </g>
    </g>
</svg>
